<svg id="regular" enable-background="new 0 0 24 24" height="512" viewBox="0 0 24 24" width="512" fill="#fff" xmlns="http://www.w3.org/2000/svg"><path d="m12 24c-6.617 0-12-5.383-12-12s5.383-12 12-12 12 5.383 12 12-5.383 12-12 12zm0-22.5c-5.79 0-10.5 4.71-10.5 10.5s4.71 10.5 10.5 10.5 10.5-4.71 10.5-10.5-4.71-10.5-10.5-10.5z"/><path d="m7 11c-1.103 0-2-.897-2-2s.897-2 2-2 2 .897 2 2-.897 2-2 2zm0-2.5c-.276 0-.5.224-.5.5s.224.5.5.5.5-.224.5-.5-.224-.5-.5-.5z"/><path d="m17 11c-1.103 0-2-.897-2-2s.897-2 2-2 2 .897 2 2-.897 2-2 2zm0-2.5c-.276 0-.5.224-.5.5s.224.5.5.5.5-.224.5-.5-.224-.5-.5-.5z"/><path d="m12 20.036c-2.089 0-4.053-.813-5.53-2.291-.293-.293-.293-.768 0-1.061s.768-.293 1.061 0c1.194 1.194 2.781 1.852 4.47 1.852s3.276-.658 4.47-1.852c.293-.293.768-.293 1.061 0s.293.768 0 1.061c-1.479 1.477-3.443 2.291-5.532 2.291z"/></svg>