<svg id="regular" enable-background="new 0 0 24 24" height="512" viewBox="0 0 24 24" width="512" fill="#fff" xmlns="http://www.w3.org/2000/svg"><path d="m12 24c-6.617 0-12-5.383-12-12s5.383-12 12-12 12 5.383 12 12-5.383 12-12 12zm0-22.5c-5.79 0-10.5 4.71-10.5 10.5s4.71 10.5 10.5 10.5 10.5-4.71 10.5-10.5-4.71-10.5-10.5-10.5z"/><path d="m9.25 8.5h-5.5c-.414 0-.75-.336-.75-.75s.336-.75.75-.75h5.5c.414 0 .75.336.75.75s-.336.75-.75.75z"/><path d="m4.75 21.34c-.414 0-.75-.336-.75-.75v-12.84c0-.414.336-.75.75-.75s.75.336.75.75v12.84c0 .414-.336.75-.75.75z"/><path d="m7.75 23.16c-.414 0-.75-.336-.75-.75v-14.66c0-.414.336-.75.75-.75s.75.336.75.75v14.66c0 .414-.336.75-.75.75z"/><path d="m20.25 8.5h-5.5c-.414 0-.75-.336-.75-.75s.336-.75.75-.75h5.5c.414 0 .75.336.75.75s-.336.75-.75.75z"/><path d="m19.25 21.34c-.414 0-.75-.336-.75-.75v-12.84c0-.414.336-.75.75-.75s.75.336.75.75v12.84c0 .414-.336.75-.75.75z"/><path d="m16.25 23.16c-.414 0-.75-.336-.75-.75v-14.66c0-.414.336-.75.75-.75s.75.336.75.75v14.66c0 .414-.336.75-.75.75z"/><path d="m12 20.95c-1.654 0-3-1.346-3-3v-.9c0-1.654 1.346-3 3-3s3 1.346 3 3v.9c0 1.654-1.346 3-3 3zm0-5.4c-.827 0-1.5.673-1.5 1.5v.9c0 .827.673 1.5 1.5 1.5s1.5-.673 1.5-1.5v-.9c0-.827-.673-1.5-1.5-1.5z"/></svg>